<mxfile host="app.diagrams.net" modified="2022-09-06T06:03:12.283Z" agent="5.0 (Macintosh; Intel Mac OS X 10_15_7) AppleWebKit/537.36 (KHTML, like Gecko) Chrome/105.0.0.0 Safari/537.36 Edg/105.0.1343.27" etag="jlRXBNdclBmS8esZH1gu" version="20.2.8" type="github">
  <diagram id="C5RBs43oDa-KdzZeNtuy" name="Page-1">
    <mxGraphModel dx="1426" dy="794" grid="1" gridSize="10" guides="1" tooltips="1" connect="1" arrows="1" fold="1" page="1" pageScale="1" pageWidth="827" pageHeight="1169" math="0" shadow="0">
      <root>
        <mxCell id="WIyWlLk6GJQsqaUBKTNV-0" />
        <mxCell id="WIyWlLk6GJQsqaUBKTNV-1" parent="WIyWlLk6GJQsqaUBKTNV-0" />
        <mxCell id="WIyWlLk6GJQsqaUBKTNV-2" value="" style="rounded=0;html=1;jettySize=auto;orthogonalLoop=1;fontSize=11;endArrow=block;endFill=0;endSize=8;strokeWidth=1;shadow=0;labelBackgroundColor=none;edgeStyle=orthogonalEdgeStyle;" parent="WIyWlLk6GJQsqaUBKTNV-1" source="WIyWlLk6GJQsqaUBKTNV-3" target="WIyWlLk6GJQsqaUBKTNV-6" edge="1">
          <mxGeometry relative="1" as="geometry" />
        </mxCell>
        <mxCell id="WIyWlLk6GJQsqaUBKTNV-3" value="开始" style="rounded=1;whiteSpace=wrap;html=1;fontSize=12;glass=0;strokeWidth=1;shadow=0;" parent="WIyWlLk6GJQsqaUBKTNV-1" vertex="1">
          <mxGeometry x="147.5" y="80" width="120" height="40" as="geometry" />
        </mxCell>
        <mxCell id="WIyWlLk6GJQsqaUBKTNV-4" value="大于 0" style="rounded=0;html=1;jettySize=auto;orthogonalLoop=1;fontSize=11;endArrow=block;endFill=0;endSize=8;strokeWidth=1;shadow=0;labelBackgroundColor=none;edgeStyle=orthogonalEdgeStyle;" parent="WIyWlLk6GJQsqaUBKTNV-1" source="WIyWlLk6GJQsqaUBKTNV-6" edge="1">
          <mxGeometry y="20" relative="1" as="geometry">
            <mxPoint as="offset" />
            <mxPoint x="208" y="360" as="targetPoint" />
          </mxGeometry>
        </mxCell>
        <mxCell id="yIwAejc2KWUFkVTcviw4-18" style="edgeStyle=orthogonalEdgeStyle;rounded=0;orthogonalLoop=1;jettySize=auto;html=1;exitX=1;exitY=0.5;exitDx=0;exitDy=0;entryX=1;entryY=0.5;entryDx=0;entryDy=0;" edge="1" parent="WIyWlLk6GJQsqaUBKTNV-1" source="WIyWlLk6GJQsqaUBKTNV-6" target="yIwAejc2KWUFkVTcviw4-4">
          <mxGeometry relative="1" as="geometry">
            <Array as="points">
              <mxPoint x="420" y="241" />
              <mxPoint x="420" y="550" />
            </Array>
          </mxGeometry>
        </mxCell>
        <mxCell id="yIwAejc2KWUFkVTcviw4-19" value="小于 0" style="edgeLabel;html=1;align=center;verticalAlign=middle;resizable=0;points=[];" vertex="1" connectable="0" parent="yIwAejc2KWUFkVTcviw4-18">
          <mxGeometry x="-0.7465" y="-1" relative="1" as="geometry">
            <mxPoint as="offset" />
          </mxGeometry>
        </mxCell>
        <mxCell id="WIyWlLk6GJQsqaUBKTNV-6" value="查询文库最近新增敏感词" style="rhombus;whiteSpace=wrap;html=1;shadow=0;fontFamily=Helvetica;fontSize=12;align=center;strokeWidth=1;spacing=6;spacingTop=-4;" parent="WIyWlLk6GJQsqaUBKTNV-1" vertex="1">
          <mxGeometry x="130" y="180" width="155" height="122.5" as="geometry" />
        </mxCell>
        <mxCell id="yIwAejc2KWUFkVTcviw4-3" value="调用石墨新增敏感词接口" style="rounded=1;whiteSpace=wrap;html=1;" vertex="1" parent="WIyWlLk6GJQsqaUBKTNV-1">
          <mxGeometry x="130" y="360" width="137.5" height="60" as="geometry" />
        </mxCell>
        <mxCell id="yIwAejc2KWUFkVTcviw4-7" value="" style="edgeStyle=orthogonalEdgeStyle;rounded=0;orthogonalLoop=1;jettySize=auto;html=1;" edge="1" parent="WIyWlLk6GJQsqaUBKTNV-1" source="yIwAejc2KWUFkVTcviw4-4" target="yIwAejc2KWUFkVTcviw4-6">
          <mxGeometry relative="1" as="geometry" />
        </mxCell>
        <mxCell id="yIwAejc2KWUFkVTcviw4-27" value="大于 0" style="edgeLabel;html=1;align=center;verticalAlign=middle;resizable=0;points=[];" vertex="1" connectable="0" parent="yIwAejc2KWUFkVTcviw4-7">
          <mxGeometry x="-0.1333" y="1" relative="1" as="geometry">
            <mxPoint as="offset" />
          </mxGeometry>
        </mxCell>
        <mxCell id="yIwAejc2KWUFkVTcviw4-28" style="edgeStyle=orthogonalEdgeStyle;rounded=0;orthogonalLoop=1;jettySize=auto;html=1;exitX=1;exitY=0.5;exitDx=0;exitDy=0;entryX=1;entryY=0.5;entryDx=0;entryDy=0;" edge="1" parent="WIyWlLk6GJQsqaUBKTNV-1" source="yIwAejc2KWUFkVTcviw4-4" target="yIwAejc2KWUFkVTcviw4-21">
          <mxGeometry relative="1" as="geometry">
            <Array as="points">
              <mxPoint x="330" y="550" />
              <mxPoint x="330" y="1120" />
            </Array>
          </mxGeometry>
        </mxCell>
        <mxCell id="yIwAejc2KWUFkVTcviw4-29" value="小于 0" style="edgeLabel;html=1;align=center;verticalAlign=middle;resizable=0;points=[];" vertex="1" connectable="0" parent="yIwAejc2KWUFkVTcviw4-28">
          <mxGeometry x="-0.3894" y="1" relative="1" as="geometry">
            <mxPoint y="-58" as="offset" />
          </mxGeometry>
        </mxCell>
        <mxCell id="yIwAejc2KWUFkVTcviw4-4" value="查询文库最近已删除敏感词" style="rhombus;whiteSpace=wrap;html=1;" vertex="1" parent="WIyWlLk6GJQsqaUBKTNV-1">
          <mxGeometry x="109.75" y="470" width="180.25" height="160" as="geometry" />
        </mxCell>
        <mxCell id="yIwAejc2KWUFkVTcviw4-5" value="" style="endArrow=classic;html=1;rounded=0;entryX=0.5;entryY=0;entryDx=0;entryDy=0;" edge="1" parent="WIyWlLk6GJQsqaUBKTNV-1" target="yIwAejc2KWUFkVTcviw4-4">
          <mxGeometry width="50" height="50" relative="1" as="geometry">
            <mxPoint x="200" y="420" as="sourcePoint" />
            <mxPoint x="440" y="560" as="targetPoint" />
          </mxGeometry>
        </mxCell>
        <mxCell id="yIwAejc2KWUFkVTcviw4-11" value="" style="edgeStyle=orthogonalEdgeStyle;rounded=0;orthogonalLoop=1;jettySize=auto;html=1;" edge="1" parent="WIyWlLk6GJQsqaUBKTNV-1" source="yIwAejc2KWUFkVTcviw4-6" target="yIwAejc2KWUFkVTcviw4-10">
          <mxGeometry relative="1" as="geometry" />
        </mxCell>
        <mxCell id="yIwAejc2KWUFkVTcviw4-6" value="调用石墨查询企业所有敏感词接口" style="whiteSpace=wrap;html=1;" vertex="1" parent="WIyWlLk6GJQsqaUBKTNV-1">
          <mxGeometry x="138.75" y="690" width="120" height="60" as="geometry" />
        </mxCell>
        <mxCell id="yIwAejc2KWUFkVTcviw4-13" value="" style="edgeStyle=orthogonalEdgeStyle;rounded=0;orthogonalLoop=1;jettySize=auto;html=1;" edge="1" parent="WIyWlLk6GJQsqaUBKTNV-1" source="yIwAejc2KWUFkVTcviw4-10" target="yIwAejc2KWUFkVTcviw4-12">
          <mxGeometry relative="1" as="geometry" />
        </mxCell>
        <mxCell id="yIwAejc2KWUFkVTcviw4-14" value="是" style="edgeLabel;html=1;align=center;verticalAlign=middle;resizable=0;points=[];" vertex="1" connectable="0" parent="yIwAejc2KWUFkVTcviw4-13">
          <mxGeometry x="-0.2487" y="2" relative="1" as="geometry">
            <mxPoint as="offset" />
          </mxGeometry>
        </mxCell>
        <mxCell id="yIwAejc2KWUFkVTcviw4-25" style="edgeStyle=orthogonalEdgeStyle;rounded=0;orthogonalLoop=1;jettySize=auto;html=1;exitX=1;exitY=0.5;exitDx=0;exitDy=0;entryX=1;entryY=0.5;entryDx=0;entryDy=0;" edge="1" parent="WIyWlLk6GJQsqaUBKTNV-1" source="yIwAejc2KWUFkVTcviw4-10" target="yIwAejc2KWUFkVTcviw4-21">
          <mxGeometry relative="1" as="geometry">
            <Array as="points">
              <mxPoint x="380" y="865" />
              <mxPoint x="380" y="1120" />
            </Array>
          </mxGeometry>
        </mxCell>
        <mxCell id="yIwAejc2KWUFkVTcviw4-26" value="否" style="edgeLabel;html=1;align=center;verticalAlign=middle;resizable=0;points=[];" vertex="1" connectable="0" parent="yIwAejc2KWUFkVTcviw4-25">
          <mxGeometry x="-0.7575" y="1" relative="1" as="geometry">
            <mxPoint as="offset" />
          </mxGeometry>
        </mxCell>
        <mxCell id="yIwAejc2KWUFkVTcviw4-10" value="文库已删除敏感词是否存在于石墨敏感词词库中" style="rhombus;whiteSpace=wrap;html=1;" vertex="1" parent="WIyWlLk6GJQsqaUBKTNV-1">
          <mxGeometry x="108.13" y="780" width="181.25" height="170" as="geometry" />
        </mxCell>
        <mxCell id="yIwAejc2KWUFkVTcviw4-22" value="" style="edgeStyle=orthogonalEdgeStyle;rounded=0;orthogonalLoop=1;jettySize=auto;html=1;" edge="1" parent="WIyWlLk6GJQsqaUBKTNV-1" source="yIwAejc2KWUFkVTcviw4-12" target="yIwAejc2KWUFkVTcviw4-21">
          <mxGeometry relative="1" as="geometry" />
        </mxCell>
        <mxCell id="yIwAejc2KWUFkVTcviw4-12" value="调用石墨删除敏感词接口" style="whiteSpace=wrap;html=1;" vertex="1" parent="WIyWlLk6GJQsqaUBKTNV-1">
          <mxGeometry x="138.755" y="990" width="120" height="60" as="geometry" />
        </mxCell>
        <mxCell id="yIwAejc2KWUFkVTcviw4-24" value="" style="edgeStyle=orthogonalEdgeStyle;rounded=0;orthogonalLoop=1;jettySize=auto;html=1;" edge="1" parent="WIyWlLk6GJQsqaUBKTNV-1" source="yIwAejc2KWUFkVTcviw4-21" target="yIwAejc2KWUFkVTcviw4-23">
          <mxGeometry relative="1" as="geometry" />
        </mxCell>
        <mxCell id="yIwAejc2KWUFkVTcviw4-21" value="更新敏感词最近同步时间" style="rounded=1;whiteSpace=wrap;html=1;" vertex="1" parent="WIyWlLk6GJQsqaUBKTNV-1">
          <mxGeometry x="138.745" y="1090" width="120" height="60" as="geometry" />
        </mxCell>
        <mxCell id="yIwAejc2KWUFkVTcviw4-23" value="结束" style="whiteSpace=wrap;html=1;rounded=1;" vertex="1" parent="WIyWlLk6GJQsqaUBKTNV-1">
          <mxGeometry x="138.755" y="1190" width="120" height="60" as="geometry" />
        </mxCell>
      </root>
    </mxGraphModel>
  </diagram>
</mxfile>
